# xmcd CD database file
#
# Track frame offsets:
#	150
#	22831
#	37542
#	58669
#	75043
#	95859
#	115340
#	136298
#	150327
#	166172
#	184696
#	208590
#
# Disc length: 2986 seconds
#
# Revision: 1
# Processed by: cddbd v1.5.2PL0 Copyright (c) Steve Scherf et al.
# Submitted via: CDex 1.70beta3
#
DISCID=830ba80c
DTITLE=柳ジョージ&レイニーウッド - YOKOHAMA
DYEAR=1991
DGENRE=J-Rock
TTITLE0=プリズナー
TTITLE1=WHAT DO YOU WANT
TTITLE2=コペンハーゲン・パーク
TTITLE3=嘆きのピエロ
TTITLE4=パブ
TTITLE5=雨に泣いている・・・(日本語)
TTITLE6=港亭(みなとてい)
TTITLE7=グルービー・ガール
TTITLE8=ヘイ・ダーリン(日本語)
TTITLE9=チャイニーズ・クィーン
TTITLE10=本牧綺談
TTITLE11=FENCEの向こうのアメリカ
EXTD=YEAR: 1991
EXTT0=
EXTT1=
EXTT2=
EXTT3=
EXTT4=
EXTT5=
EXTT6=
EXTT7=
EXTT8=
EXTT9=
EXTT10=
EXTT11=
PLAYORDER=
